<?xml version="1.0" encoding="UTF-8"?>
<svg width="48px" height="48px" viewBox="0 0 48 48" version="1.1" xmlns="http://www.w3.org/2000/svg" xmlns:xlink="http://www.w3.org/1999/xlink">
    <title>Group</title>
    <g id="Page-1" stroke="none" stroke-width="1" fill="none" fill-rule="evenodd">
        <g id="Desktop-HD" transform="translate(-436.000000, -322.000000)">
            <g id="Group" transform="translate(436.000000, 322.000000)">
                <circle id="Oval" fill="#000000" cx="24" cy="24" r="24"></circle>
                <line x1="12.5" y1="39.2" x2="26.5" y2="39.2" id="Line" stroke="#FFFFFF" stroke-width="0.8" stroke-linecap="square"></line>
                <g id="P" transform="translate(11.009766, 8.005859)" fill="#FAFAFA" fill-rule="nonzero">
                    <path d="M7.97070313,15.2324219 L14.5234375,5.45703125 C13.0338542,5.51432292 11.4654948,5.72916667 9.81835938,6.1015625 C8.17122396,6.47395833 6.76041667,6.87141927 5.5859375,7.29394531 C4.41145833,7.71647135 3.36230469,8.11751302 2.43847656,8.49707031 C1.51464844,8.8766276 0.852213542,9.14518229 0.451171875,9.30273438 C0.350911458,9.30273438 0.250651042,9.26692708 0.150390625,9.1953125 C0.0501302083,9.12369792 0,9.03776042 0,8.9375 C0,8.82291667 0.333007813,8.12109375 0.999023438,6.83203125 C1.66503906,5.54296875 2.44921875,4.16080729 3.3515625,2.68554688 C8.36458333,0.895182292 12.7903646,0 16.6289062,0 C21.0690104,0 24.1484375,0.9453125 25.8671875,2.8359375 C26.4830729,3.49479167 26.9593099,4.30761719 27.2958984,5.27441406 C27.632487,6.24121094 27.8007812,7.19726562 27.8007812,8.14257812 C27.8007812,10.2910156 27.3531901,12.242513 26.4580078,13.9970703 C25.5628255,15.7516276 24.2845052,17.2734375 22.6230469,18.5625 C20.9615885,19.8515625 19.0065104,20.836263 16.7578125,21.5166016 C14.5091146,22.1969401 12.0455729,22.5371094 9.3671875,22.5371094 C8.89453125,22.5371094 7.92773438,22.4511719 6.46679688,22.2792969 L4.53320312,25.8027344 C4.73372396,26.1035156 4.83398438,26.3470052 4.83398438,26.5332031 C4.83398438,26.9772135 4.73372396,27.3496094 4.53320312,27.6503906 C4.24674479,28.0800781 3.8671875,28.6458333 3.39453125,29.3476562 C2.921875,30.0494792 2.6031901,30.514974 2.43847656,30.7441406 C2.27376302,30.9733073 2.0875651,31.1738281 1.87988281,31.3457031 C1.67220052,31.5175781 1.46809896,31.6035156 1.26757812,31.6035156 C0.852213542,31.6035156 0.587239583,31.4781901 0.47265625,31.2275391 C0.358072917,30.976888 0.30078125,30.6295573 0.30078125,30.1855469 C0.30078125,29.5553385 0.612304688,28.5563151 1.23535156,27.1884766 C1.85839844,25.820638 2.80013021,24.0052083 4.06054688,21.7421875 C3.38736979,21.484375 2.86458333,21.1477865 2.4921875,20.7324219 C2.11979167,20.3170573 1.93359375,19.9088542 1.93359375,19.5078125 C1.93359375,18.6197917 2.44205729,17.796224 3.45898438,17.0371094 C4.47591146,16.2779948 5.97981771,15.6764323 7.97070313,15.2324219 Z M10.2050781,15.8125 L8.98046875,17.875 C9.52473958,17.9036458 10.008138,17.9322917 10.4306641,17.9609375 C10.8531901,17.9895833 11.2076823,18.0039062 11.4941406,18.0039062 C14.000651,18.0039062 16.1741536,17.6673177 18.0146484,16.9941406 C19.8551432,16.3209635 21.3160807,15.4866536 22.3974609,14.4912109 C23.4788411,13.4957682 24.2630208,12.4967448 24.75,11.4941406 C25.2369792,10.4915365 25.4804688,9.65364583 25.4804688,8.98046875 C25.4804688,8.04947917 25.1080729,7.31901042 24.3632812,6.7890625 C23.6184896,6.25911458 22.5478516,5.89746094 21.1513672,5.70410156 C19.7548828,5.51074219 17.953776,5.4140625 15.7480469,5.4140625 C15.7766927,5.57161458 15.7910156,5.76497396 15.7910156,5.99414062 C15.7910156,6.73893229 15.3971354,7.72005208 14.609375,8.9375 L10.8710938,14.8027344 L13.6855469,14.4804688 C13.9147135,14.4804688 14.0292969,14.5878906 14.0292969,14.8027344 C14.0292969,14.9889323 13.843099,15.1178385 13.4707031,15.1894531 L10.2050781,15.8125 Z" id="Shape"></path>
                </g>
                <g id="ark" transform="translate(26.035156, 32.232188)" fill="#FAFAFA" fill-rule="nonzero">
                    <path d="M0.744140625,4.48828125 C1.33789062,3.94921875 1.9140625,3.54882812 2.47265625,3.28710938 C3.03125,3.02539062 3.46289062,2.89453125 3.76757812,2.89453125 C3.84960938,2.89453125 3.92578125,2.92871094 3.99609375,2.99707031 C4.06640625,3.06542969 4.12207031,3.14453125 4.16308594,3.234375 C4.20410156,3.32421875 4.22460938,3.390625 4.22460938,3.43359375 C4.22460938,3.50390625 4.19726562,3.55566406 4.14257812,3.58886719 C4.08789062,3.62207031 3.9921875,3.66210938 3.85546875,3.70898438 C3.8828125,3.77148438 3.91796875,3.8515625 3.9609375,3.94921875 C4.00390625,4.046875 4.03710938,4.12597656 4.06054688,4.18652344 C4.08398438,4.24707031 4.09570312,4.30078125 4.09570312,4.34765625 C4.09570312,4.44140625 4.00097656,4.61621094 3.81152344,4.87207031 C3.62207031,5.12792969 3.48925781,5.31640625 3.41308594,5.4375 C3.33691406,5.55859375 3.29882812,5.70703125 3.29882812,5.8828125 C3.29882812,6.171875 3.43164062,6.31640625 3.69726562,6.31640625 C3.97070312,6.31640625 4.3984375,6.06054688 4.98046875,5.54882812 L4.98046875,5.90625 C3.9921875,7.00390625 3.28515625,7.55273438 2.859375,7.55273438 C2.70703125,7.55273438 2.59863281,7.50292969 2.53417969,7.40332031 C2.46972656,7.30371094 2.4375,7.15625 2.4375,6.9609375 C2.4375,6.65234375 2.54882812,6.20507812 2.77148438,5.61914062 C2.20117188,6.25195312 1.77734375,6.70214844 1.5,6.96972656 C1.22265625,7.23730469 0.994140625,7.37109375 0.814453125,7.37109375 C0.728515625,7.37109375 0.62109375,7.296875 0.4921875,7.1484375 C0.36328125,7 0.249023438,6.80761719 0.149414062,6.57128906 C0.0498046875,6.33496094 0,6.08984375 0,5.8359375 C0,5.65234375 0.017578125,5.49902344 0.052734375,5.37597656 C0.087890625,5.25292969 0.15625,5.12695312 0.2578125,4.99804688 C0.359375,4.86914062 0.521484375,4.69921875 0.744140625,4.48828125 Z M3.55078125,3.84375 C2.53515625,4.30859375 1.81152344,4.703125 1.37988281,5.02734375 C0.948242188,5.3515625 0.732421875,5.68554688 0.732421875,6.02929688 C0.732421875,6.15429688 0.75390625,6.25683594 0.796875,6.33691406 C0.83984375,6.41699219 0.8984375,6.45703125 0.97265625,6.45703125 C1.015625,6.45703125 1.09179688,6.4296875 1.20117188,6.375 C1.61132812,6.1328125 1.98632812,5.81738281 2.32617188,5.42871094 C2.66601562,5.04003906 3.07421875,4.51171875 3.55078125,3.84375 Z" id="Shape"></path>
                    <path d="M4.86914062,5.98828125 L4.86914062,5.60742188 C5.08007812,5.35742188 5.24023438,5.14453125 5.34960938,4.96875 C5.22460938,4.92578125 5.13378906,4.87304688 5.07714844,4.81054688 C5.02050781,4.74804688 4.9921875,4.65429688 4.9921875,4.52929688 C4.9921875,4.38867188 5.05078125,4.2109375 5.16796875,3.99609375 C5.28515625,3.78125 5.4296875,3.58007812 5.6015625,3.39257812 C5.7734375,3.20507812 5.9296875,3.08398438 6.0703125,3.02929688 C6.125,3.00195312 6.17773438,2.98828125 6.22851562,2.98828125 C6.30664062,2.98828125 6.34570312,3.02539062 6.34570312,3.09960938 C6.34570312,3.16601562 6.28515625,3.30078125 6.1640625,3.50390625 C6.96875,3.37890625 7.4765625,3.31640625 7.6875,3.31640625 C7.76953125,3.31640625 7.82617188,3.32421875 7.85742188,3.33984375 C7.92382812,3.375 7.97851562,3.45703125 8.02148438,3.5859375 C8.06445312,3.71484375 8.0859375,3.84375 8.0859375,3.97265625 C8.0859375,4.0546875 8.04980469,4.14355469 7.97753906,4.23925781 C7.90527344,4.33496094 7.78125,4.47460938 7.60546875,4.65820312 C7.3984375,4.88085938 7.22460938,5.12304688 7.08398438,5.38476562 C6.94335938,5.64648438 6.87304688,5.84375 6.87304688,5.9765625 C6.87304688,6.16015625 6.98632812,6.25195312 7.21289062,6.25195312 C7.45117188,6.25195312 7.86523438,6.00976562 8.45507812,5.52539062 L8.45507812,5.91796875 C8.13085938,6.2578125 7.86328125,6.52539062 7.65234375,6.72070312 C7.44140625,6.91601562 7.24609375,7.07128906 7.06640625,7.18652344 C6.88671875,7.30175781 6.7265625,7.359375 6.5859375,7.359375 C6.421875,7.359375 6.28515625,7.28417969 6.17578125,7.13378906 C6.06640625,6.98339844 6.01171875,6.765625 6.01171875,6.48046875 C6.01171875,6.3125 6.0546875,6.12109375 6.140625,5.90625 C6.2265625,5.69140625 6.35253906,5.45800781 6.51855469,5.20605469 C6.68457031,4.95410156 6.87109375,4.703125 7.078125,4.453125 C6.96875,4.4765625 6.84570312,4.50097656 6.70898438,4.52636719 C6.57226562,4.55175781 6.42773438,4.578125 6.27539062,4.60546875 C6.12304688,4.6328125 6.00585938,4.65429688 5.92382812,4.66992188 C5.68164062,5.15429688 5.33007812,5.59375 4.86914062,5.98828125 Z" id="Path"></path>
                    <path d="M12.8496094,5.53710938 L12.8496094,5.9296875 C12.4121094,6.44140625 12.0449219,6.82910156 11.7480469,7.09277344 C11.4511719,7.35644531 11.203125,7.48828125 11.0039062,7.48828125 C10.8125,7.48828125 10.6396484,7.43164062 10.4853516,7.31835938 C10.3310547,7.20507812 10.1923828,7.04882812 10.0693359,6.84960938 C9.94628906,6.65039062 9.80078125,6.37304688 9.6328125,6.01757812 C9.43359375,6.26367188 9.25390625,6.49316406 9.09375,6.70605469 C8.93359375,6.91894531 8.82226562,7.06054688 8.75976562,7.13085938 C8.69726562,7.20117188 8.640625,7.23632812 8.58984375,7.23632812 C8.484375,7.23632812 8.40820312,7.16894531 8.36132812,7.03417969 C8.31445312,6.89941406 8.29101562,6.703125 8.29101562,6.4453125 C8.29101562,6.09375 8.33300781,5.75488281 8.41699219,5.42871094 C8.50097656,5.10253906 8.62207031,4.78515625 8.78027344,4.4765625 C8.93847656,4.16796875 9.14160156,3.83496094 9.38964844,3.47753906 C9.63769531,3.12011719 9.91601562,2.74609375 10.2246094,2.35546875 C10.6503906,1.81640625 11.0175781,1.37597656 11.3261719,1.03417969 C11.6347656,0.692382812 11.9033203,0.434570312 12.1318359,0.260742188 C12.3603516,0.0869140625 12.5507812,0 12.703125,0 C12.890625,0 12.984375,0.083984375 12.984375,0.251953125 C12.984375,0.396484375 12.6386719,0.916992188 11.9472656,1.81347656 C11.2558594,2.70996094 10.2480469,3.93359375 8.92382812,5.484375 L8.92382812,5.98828125 C9.81054688,5.0390625 10.5244141,4.33398438 11.0654297,3.87304688 C11.6064453,3.41210938 12.0253906,3.18164062 12.3222656,3.18164062 C12.4433594,3.18164062 12.5371094,3.25292969 12.6035156,3.39550781 C12.6699219,3.53808594 12.703125,3.703125 12.703125,3.890625 C12.703125,4.2734375 12.5390625,4.62792969 12.2109375,4.95410156 C11.8828125,5.28027344 11.3789062,5.65429688 10.6992188,6.07617188 C10.8164062,6.25195312 10.9199219,6.37988281 11.0097656,6.45996094 C11.0996094,6.54003906 11.2128906,6.58007812 11.3496094,6.58007812 C11.4707031,6.58007812 11.6015625,6.5390625 11.7421875,6.45703125 C11.8828125,6.375 12.0263672,6.27148438 12.1728516,6.14648438 C12.3193359,6.02148438 12.5449219,5.81835938 12.8496094,5.53710938 Z M10.5351562,5.8359375 C10.6835938,5.73828125 10.8681641,5.58691406 11.0888672,5.38183594 C11.3095703,5.17675781 11.4980469,4.96386719 11.6542969,4.74316406 C11.8105469,4.52246094 11.8886719,4.33789062 11.8886719,4.18945312 C11.8886719,4.12695312 11.8613281,4.09570312 11.8066406,4.09570312 C11.6582031,4.09570312 11.4033203,4.23828125 11.0419922,4.5234375 C10.6806641,4.80859375 10.328125,5.17382812 9.984375,5.61914062 C10.1328125,5.61914062 10.3164062,5.69140625 10.5351562,5.8359375 Z" id="Shape"></path>
                </g>
            </g>
        </g>
    </g>
</svg>